<svg width="24" height="14" fill="none" xmlns="http://www.w3.org/2000/svg"><path fill-rule="evenodd" clip-rule="evenodd" d="M13.15 13.669s.424-.046.641-.274c.199-.208.192-.601.192-.601s-.027-1.838.847-2.109c.86-.267 1.966 1.777 3.14 2.562.885.595 1.558.464 1.558.464l3.134-.042s1.64-.099.862-1.357c-.064-.103-.453-.932-2.33-2.633-1.966-1.781-1.702-1.493.665-4.574 1.441-1.876 2.018-3.022 1.837-3.512-.17-.468-1.231-.344-1.231-.344l-3.528.022s-.262-.035-.456.078c-.19.11-.312.37-.312.37s-.558 1.451-1.303 2.686c-1.571 2.605-2.199 2.743-2.456 2.582-.598-.378-.449-1.516-.449-2.324 0-2.525.393-3.577-.763-3.85-.383-.09-.666-.15-1.647-.16-1.26-.012-2.324.004-2.928.292-.402.192-.712.62-.522.645.233.03.76.139 1.04.511.362.48.35 1.56.35 1.56S9.698 6.631 9.005 7c-.475.253-1.127-.263-2.528-2.627-.718-1.21-1.26-2.549-1.26-2.549s-.104-.25-.291-.384a1.465 1.465 0 00-.542-.213l-3.352.021s-.504.014-.689.228c-.164.19-.013.583-.013.583s2.625 5.997 5.598 9.02c2.726 2.77 5.82 2.589 5.82 2.589h1.403z" fill="#fff"/></svg>